<svg width="20" height="20" viewBox="0 0 20 20" fill="none" xmlns="http://www.w3.org/2000/svg">
<g clip-path="url(#clip0_257_7694)">
<path d="M9.16669 5.83341H10.8334V7.50008H9.16669V5.83341ZM9.16669 9.16675H10.8334V14.1667H9.16669V9.16675ZM10 1.66675C5.40002 1.66675 1.66669 5.40008 1.66669 10.0001C1.66669 14.6001 5.40002 18.3334 10 18.3334C14.6 18.3334 18.3334 14.6001 18.3334 10.0001C18.3334 5.40008 14.6 1.66675 10 1.66675ZM10 16.6667C6.32502 16.6667 3.33335 13.6751 3.33335 10.0001C3.33335 6.32508 6.32502 3.33341 10 3.33341C13.675 3.33341 16.6667 6.32508 16.6667 10.0001C16.6667 13.6751 13.675 16.6667 10 16.6667Z" fill="#4D4D4D"/>
</g>
<defs>
<clipPath id="clip0_257_7694">
<rect width="20" height="20" fill="white"/>
</clipPath>
</defs>
</svg>
