<svg width="20" height="20" viewBox="0 0 20 20" fill="none" xmlns="http://www.w3.org/2000/svg">
<path d="M13.3334 1.66675H6.66675C3.90925 1.66675 1.66675 3.90925 1.66675 6.66675V16.6667C1.66675 16.8878 1.75455 17.0997 1.91083 17.256C2.06711 17.4123 2.27907 17.5001 2.50008 17.5001H13.3334C16.0909 17.5001 18.3334 15.2576 18.3334 12.5001V6.66675C18.3334 3.90925 16.0909 1.66675 13.3334 1.66675ZM16.6667 12.5001C16.6667 14.3384 15.1717 15.8334 13.3334 15.8334H3.33341V6.66675C3.33341 4.82841 4.82841 3.33341 6.66675 3.33341H13.3334C15.1717 3.33341 16.6667 4.82841 16.6667 6.66675V12.5001Z" fill="#0C4AC0"/>
<path d="M7.91675 10.8333C8.6071 10.8333 9.16675 10.2736 9.16675 9.58325C9.16675 8.8929 8.6071 8.33325 7.91675 8.33325C7.22639 8.33325 6.66675 8.8929 6.66675 9.58325C6.66675 10.2736 7.22639 10.8333 7.91675 10.8333Z" fill="#0C4AC0"/>
<path d="M12.0833 10.8333C12.7736 10.8333 13.3333 10.2736 13.3333 9.58325C13.3333 8.8929 12.7736 8.33325 12.0833 8.33325C11.3929 8.33325 10.8333 8.8929 10.8333 9.58325C10.8333 10.2736 11.3929 10.8333 12.0833 10.8333Z" fill="#0C4AC0"/>
</svg>
