<svg width="20" height="20" viewBox="0 0 20 20" fill="none" xmlns="http://www.w3.org/2000/svg">
<path d="M12.0834 12.1667V12.1668L12.0904 12.1667C12.1597 12.1657 12.2289 12.1606 12.2975 12.1513C12.3519 12.1583 12.4292 12.1667 12.5 12.1667C12.9285 12.1667 13.3475 12.0397 13.7038 11.8016C14.0601 11.5635 14.3378 11.2251 14.5018 10.8292C14.6657 10.4333 14.7087 9.99768 14.6251 9.57739C14.5415 9.15709 14.3351 8.77103 14.0321 8.46802C13.7291 8.165 13.343 7.95865 12.9227 7.87505C12.5024 7.79144 12.0668 7.83435 11.6709 7.99834C11.275 8.16233 10.9366 8.44004 10.6985 8.79635C10.4604 9.15265 10.3334 9.57155 10.3334 10.0001C10.3334 10.072 10.342 10.1504 10.3491 10.2049C10.3409 10.2654 10.3334 10.3387 10.3334 10.4167C10.3334 10.8809 10.5177 11.326 10.8459 11.6542C11.1741 11.9824 11.6192 12.1667 12.0834 12.1667ZM6.66669 2.16675H13.3334C15.8147 2.16675 17.8334 4.18539 17.8334 6.66675V13.3334C17.8334 15.8148 15.8147 17.8334 13.3334 17.8334H2.50002C2.41161 17.8334 2.32683 17.7983 2.26432 17.7358C2.20181 17.6733 2.16669 17.5885 2.16669 17.5001V6.66675C2.16669 4.18539 4.18533 2.16675 6.66669 2.16675ZM7.91669 12.1667C8.38082 12.1667 8.82594 11.9824 9.15412 11.6542C9.48231 11.326 9.66669 10.8809 9.66669 10.4167C9.66669 10.3381 9.65914 10.265 9.65089 10.2047C9.65801 10.1501 9.66669 10.0715 9.66669 10.0001C9.66669 9.57155 9.53961 9.15265 9.30154 8.79635C9.06346 8.44004 8.72507 8.16233 8.32917 7.99834C7.93326 7.83435 7.49762 7.79145 7.07732 7.87505C6.65703 7.95865 6.27097 8.165 5.96796 8.46802C5.66494 8.77103 5.45859 9.15709 5.37499 9.57739C5.29138 9.99768 5.33429 10.4333 5.49828 10.8292C5.66227 11.2251 5.93998 11.5635 6.29628 11.8016C6.65259 12.0397 7.07149 12.1667 7.50002 12.1667C7.57131 12.1667 7.64905 12.1582 7.70349 12.1511C7.76645 12.1598 7.83852 12.1667 7.91669 12.1667Z" fill="#0C4AC0" stroke="#0C4AC0"/>
</svg>
