<svg width="20" height="20" viewBox="0 0 20 20" fill="none" xmlns="http://www.w3.org/2000/svg">
<path d="M3.00002 8.81425V8.63217L2.88293 8.49272C2.43989 7.96508 2.16669 7.28021 2.16669 6.52591V4.16675C2.16669 3.06456 3.0645 2.16675 4.16669 2.16675H15.8334C16.9355 2.16675 17.8334 3.06456 17.8334 4.16675V6.52508C17.8334 7.28033 17.5601 7.96505 17.1173 8.49164L17 8.63114V8.81341V15.8334C17 16.4764 16.4764 17.0001 15.8334 17.0001H4.16669C3.52366 17.0001 3.00002 16.4764 3.00002 15.8334V8.81425ZM15.1 8.83166L15.1086 8.83151L15.1172 8.83105C16.2882 8.76924 17.1667 7.70296 17.1667 6.52591V4.16675C17.1667 3.43176 16.5698 2.83341 15.8334 2.83341H13.3334H12.8334V3.33341V6.66675C12.8334 7.86206 13.8047 8.83341 15 8.83341V8.8335L15.0092 8.83333L15.1 8.83166ZM8.33335 2.83341H7.83335V3.33341V6.66675C7.83335 7.86206 8.80471 8.83341 10 8.83341C11.1953 8.83341 12.1667 7.86206 12.1667 6.66675V3.33341V2.83341H11.6667H8.33335ZM7.16669 3.33341V2.83341H6.66669H4.16669C3.43022 2.83341 2.83335 3.43176 2.83335 4.16675V6.52591C2.83335 7.70282 3.7118 8.76953 4.88331 8.83024L4.8833 8.83039L4.89543 8.83073L4.98626 8.83323L4.98626 8.83341H5.00002C6.19533 8.83341 7.16669 7.86206 7.16669 6.66675V3.33341ZM7.83335 15.8334V16.3334H8.33335H11.6667H12.1667V15.8334V13.3334V12.8334H11.6667H8.33335H7.83335V13.3334V15.8334ZM12.8334 15.8334V16.3334H13.3334H15.8334H16.3334V15.8334V9.89091V9.24192L15.7058 9.40745C15.5241 9.45538 15.3399 9.48602 15.1517 9.49575L15.1504 9.49582C14.7236 9.51898 14.2971 9.44493 13.9031 9.27925C13.509 9.11357 13.1578 8.86058 12.8758 8.53937L12.5007 8.11214L12.1249 8.53872C11.6048 9.129 10.8445 9.50008 10 9.50008C9.15558 9.50008 8.39523 9.129 7.87519 8.53872L7.49937 8.11214L7.12428 8.53937C6.84227 8.86058 6.491 9.11357 6.09697 9.27925C5.70294 9.44493 5.27644 9.51898 4.84962 9.49582L4.84841 9.49575C4.66084 9.48603 4.47577 9.45534 4.29421 9.40745L3.66669 9.24192V9.89091V15.8334V16.3334H4.16669H6.66669H7.16669V15.8334V13.3334C7.16669 12.6904 7.69033 12.1667 8.33335 12.1667H11.6667C12.3097 12.1667 12.8334 12.6904 12.8334 13.3334V15.8334Z" stroke="#0C4AC0"/>
</svg>
