<svg width="20" height="20" viewBox="0 0 20 20" fill="none" xmlns="http://www.w3.org/2000/svg">
<path d="M17.8324 6.66649V6.66675C17.8324 7.37239 17.5621 8.0155 17.1223 8.51977L16.9991 8.66101V8.84841V16.6667C16.9991 16.7552 16.964 16.8399 16.9015 16.9024C16.839 16.965 16.7542 17.0001 16.6658 17.0001H14.9991C14.9107 17.0001 14.8259 16.965 14.7634 16.9025C14.7009 16.8399 14.6658 16.7552 14.6658 16.6667V12.5001V12.0001H14.1658H10.8324H10.3324V12.5001V16.6667C10.3324 16.7552 10.2973 16.8399 10.2348 16.9024C10.1723 16.965 10.0875 17.0001 9.9991 17.0001H3.33244C3.24403 17.0001 3.15925 16.965 3.09674 16.9025C3.03422 16.8399 2.9991 16.7552 2.9991 16.6667V8.84841V8.66101L2.87592 8.51977C2.43612 8.0155 2.16577 7.37239 2.16577 6.66675L2.16577 6.66649C2.16574 6.60627 2.18215 6.54718 2.21322 6.4956L2.21366 6.49487L4.47116 2.7332L4.47131 2.73295C4.68012 2.38455 5.06477 2.16675 5.47077 2.16675H14.5266C14.728 2.16747 14.9258 2.21995 15.1011 2.31914L15.3438 1.89025L15.1011 2.31914C15.2764 2.41833 15.4232 2.56089 15.5275 2.73316C15.5276 2.73337 15.5278 2.73358 15.5279 2.73379L17.7845 6.49483L17.785 6.49559C17.8161 6.54718 17.8325 6.60627 17.8324 6.66649ZM17.1484 6.9391L17.1703 6.76726L17.0812 6.61871L14.9562 3.07621L14.8106 2.83341H14.5274H12.6824H12.0725L12.1922 3.4315L12.7282 6.1112L12.7027 6.1163L12.8115 6.61359C12.8174 6.6404 12.8237 6.66398 12.8278 6.67881L12.8308 6.68954L12.8326 6.69623C12.8485 7.87799 13.8136 8.83341 14.9991 8.83341H14.9996C15.5268 8.8329 16.0358 8.64029 16.4314 8.29163C16.8269 7.94296 17.0818 7.46213 17.1484 6.9391ZM7.84796 6.62297L7.83666 6.67955L7.83854 6.73722C7.8764 7.89802 8.8263 8.83341 9.9991 8.83341C11.1719 8.83341 12.1218 7.89802 12.1597 6.73722L12.1616 6.67949L12.1502 6.62286L11.4727 3.23536L11.3923 2.83341H10.9824H9.01494H8.60494L8.52462 3.23547L7.84796 6.62297ZM5.47077 2.83341H5.18764L5.042 3.07621L2.917 6.61871L2.82789 6.76726L2.84978 6.9391C2.91641 7.46213 3.17133 7.94296 3.56685 8.29163C3.96236 8.64029 4.47136 8.8329 4.99862 8.83341H4.99911C6.18428 8.83341 7.14928 7.87846 7.16556 6.69711L7.16962 6.68282C7.17355 6.66896 7.17995 6.6463 7.18591 6.62085L7.30382 6.1178L7.27069 6.11117L7.80608 3.43137L7.92555 2.83341H7.31577H5.47077ZM7.16141 6.71241C7.1614 6.71244 7.16148 6.71208 7.16167 6.7113L7.16141 6.71241ZM8.33244 13.8334H8.83244V13.3334V10.8334V10.3334H8.33244H4.99911H4.49911V10.8334V13.3334V13.8334H4.99911H8.33244Z" fill="#0C4AC0" stroke="#0C4AC0"/>
</svg>
