<svg width="44" height="44" viewBox="0 0 44 44" fill="none" xmlns="http://www.w3.org/2000/svg">
<path fill-rule="evenodd" clip-rule="evenodd" d="M14 18C14 17.4477 14.4477 17 15 17C15.5523 17 16 17.4477 16 18V27C16 29.8477 18.1523 32 21 32C23.8477 32 26 29.8477 26 27V15C26 13.3523 24.6477 12 23 12C21.3523 12 20 13.3523 20 15V27C20 27.6477 20.3523 28 21 28C21.6477 28 22 27.6477 22 27V18C22 17.4477 22.4477 17 23 17C23.5523 17 24 17.4477 24 18V27C24 28.7523 22.7523 30 21 30C19.2477 30 18 28.7523 18 27V15C18 12.2477 20.2477 10 23 10C25.7523 10 28 12.2477 28 15V27C28 30.9523 24.9523 34 21 34C17.0477 34 14 30.9523 14 27V18Z" fill="#2F3941"/>
</svg>
